<svg role="img" viewBox="0 0 24 24" xmlns="http://www.w3.org/2000/svg"><title>Drush</title><path d="M3.778 2.052c-2.316.51-1.34 2.895-1.34 2.895l1.62 1.62s.872-1.765 2.193-1.328c.45.148.877 1.144 1.256 1.545l3.868 3.867 6.45-6.452C16.892 3.1 15.65.625 13.064 1.762c-2.02.888-2.615 3.328-4.78 3.553-2.164.226-2.584-3.69-4.506-3.263zm6.388 9.387c-.64.062-5.462 5.253-5.266 5.4 2.373 1.77 5.61.644 6.746-1.59 0 0-1.42.146-2.146-.66-.456-.505.772-2.144.665-3.15zm2.756 1.05s1.85 1.442.22 3.818c1.373 1.666 3.018 1.488 4.295.344.416-.373.228-.686-2.26-2.92-1.304-1.173-2.254-1.242-2.254-1.242zM15.34 1.34L22.255 8.35l-3.32 3.42-6.914-7.01 3.32-3.42z" fill="#000000"/></svg>
