<svg role="img" viewBox="0 0 24 24" xmlns="http://www.w3.org/2000/svg"><title>Twig</title><path d="M12.004 0c-1.332.008-2.61.163-3.832.465 0 0 1.09.436 1.135 1.517.02.482-.284.86-.54 1.258-.593.92-1.386 2.05-1.577 3.65-.05.41.05.815.226 1.18.232.482.593.89 1.05 1.118.455.227.913.344 1.344.428.43.084.808.136 1.1.18.57.09 1.05.163 1.54.343.49.18.96.47 1.35.83.78.73 1.38 1.8 1.25 3.12-.07.7-.35 1.31-.77 1.83-.42.52-.97.94-1.59 1.25-.63.31-1.32.51-2 .63-.68.12-1.38.16-2.06.13-.67-.02-1.32-.12-1.95-.29-.62-.17-1.19-.42-1.7-.75-.5-.33-.94-.74-1.28-1.23-.68.96-1.02 2.16-1.01 3.41.02 2.05.99 3.86 2.5 4.96.76.55 1.62.91 2.53 1.04.92.14 1.87.12 2.81-.04 1.87-.33 3.53-1.36 4.7-2.88 1.17-1.53 1.83-3.41 1.83-5.38s-.66-3.85-1.83-5.37c-1.17-1.53-2.83-2.56-4.7-2.89-.48-.09-.97-.13-1.46-.14-.24 0-.48 0-.71.02-.23.01-.46.04-.68.08-.43.07-.82.16-1.18.27-.37.11-.7.24-.99.39-.29.15-.54.32-.74.5-.1.09-.18.19-.24.29-.07.1-.1.21-.12.33-.02.12-.02.24 0 .37.03.12.08.24.16.35.15.23.4.4.67.52.28.12.6.2.94.25.35.05.74.07 1.16.03.42-.03.87-.1 1.33-.21.46-.11.94-.27 1.41-.5.47-.23.94-.53 1.37-.92.43-.38.82-.85 1.15-1.41.33-.56.6-1.21.78-1.99.19-.78.29-1.68.29-2.73 0-.58-.04-1.12-.11-1.62a8.67 8.67 0 0 0-.41-1.48 5.76 5.76 0 0 0-.8-1.29c-.31-.35-.68-.66-1.1-.92a3.3 3.3 0 0 0-.71-.34c-.26-.09-.53-.15-.81-.19-.28-.03-.57-.04-.87-.02-.59.04-1.18.17-1.74.37-.56.2-1.08.48-1.56.81-.48.34-.9.74-1.25 1.19-.72 1.84-2.89 1.95-2.89 1.95a12.01 12.01 0 0 1 6.83-7.51c.32-.12.63-.19.95-.25 1.06-.21 2.14-.31 3.23-.31h.01Z" fill="#8DA65A"/></svg>
